<?xml version="1.0" encoding="UTF-8" standalone="no" ?>
<!DOCTYPE svg PUBLIC "-//W3C//DTD SVG 1.1//EN" "http://www.w3.org/Graphics/SVG/1.1/DTD/svg11.dtd">
<svg xmlns="http://www.w3.org/2000/svg" xmlns:xlink="http://www.w3.org/1999/xlink" version="1.1" width="700" height="440" viewBox="0 0 700 440" xml:space="preserve">
<desc>Sdelano: LOGOZA.RU</desc>
<defs>

                    <style type="text/css">
                        @font-face {
                            font-family: "MartaDecorTwo";
                            src: url("MartaDecorTwo.woff") format("woff");
                            src: url("MartaDecorTwo.ttf") format("truetype");
                            font-weight: normal;
                            font-style: normal;
                            font-display: swap;
                        }
                    </style>
                
                    <style type="text/css">
                        @font-face {
                            font-family: "Optimal";
                            src: url("Optimal.woff") format("woff");
                            src: url("Optimal.ttf") format("truetype");
                            font-weight: normal;
                            font-style: normal;
                            font-display: swap;
                        }
                    </style>
                
</defs>
<rect x="0" y="0" width="100%" height="100%" fill="#FEC606"></rect>
<g transform="matrix(1 0 0 1 350 220)"  >
<g style=""   >
		<g transform="matrix(0.48 0 0 0.48 0 -58.9)"  >
<filter id="SVGID_4677" y="-20%" height="140%" x="-20%" width="140%" >
	<feGaussianBlur in="SourceAlpha" stdDeviation="0"></feGaussianBlur>
	<feOffset dx="0" dy="0" result="oBlur" ></feOffset>
	<feFlood flood-color="rgb(0,0,0)" flood-opacity="0.5"/>
	<feComposite in2="oBlur" operator="in" />
	<feMerge>
		<feMergeNode></feMergeNode>
		<feMergeNode in="SourceGraphic"></feMergeNode>
	</feMerge>
</filter>
<g style="filter: url(#SVGID_4677);"   >
		<g transform="matrix(1 0 0 1 -67.18 -67.18)" id="XMLID_473_"  >
<polygon style="stroke: none; stroke-width: 1; stroke-dasharray: none; stroke-linecap: butt; stroke-dashoffset: 0; stroke-linejoin: miter; stroke-miterlimit: 4; fill: rgb(255,152,17); fill-rule: nonzero; opacity: 1;"  points="-67.18,-67.17 -67.18,11.53 -67.17,11.53 67.18,67.18 " />
</g>
		<g transform="matrix(1 0 0 1 -95 27.83)" id="XMLID_474_"  >
<polygon style="stroke: none; stroke-width: 1; stroke-dasharray: none; stroke-linecap: butt; stroke-dashoffset: 0; stroke-linejoin: miter; stroke-miterlimit: 4; fill: rgb(255,218,68); fill-rule: nonzero; opacity: 1;"  points="-95,-27.82 -39.35,27.82 95,-27.82 " />
</g>
		<g transform="matrix(1 0 0 1 -67.18 67.18)" id="XMLID_475_"  >
<polygon style="stroke: none; stroke-width: 1; stroke-dasharray: none; stroke-linecap: butt; stroke-dashoffset: 0; stroke-linejoin: miter; stroke-miterlimit: 4; fill: rgb(145,220,90); fill-rule: nonzero; opacity: 1;"  points="11.53,67.18 67.18,-67.17 -67.18,67.18 " />
</g>
		<g transform="matrix(1 0 0 1 -27.83 -95)" id="XMLID_476_"  >
<polygon style="stroke: none; stroke-width: 1; stroke-dasharray: none; stroke-linecap: butt; stroke-dashoffset: 0; stroke-linejoin: miter; stroke-miterlimit: 4; fill: rgb(255,80,35); fill-rule: nonzero; opacity: 1;"  points="27.82,-95 -27.82,-39.35 -27.83,-39.35 27.82,95 " />
</g>
		<g transform="matrix(1 0 0 1 -67.18 -67.18)" id="XMLID_477_"  >
<polygon style="stroke: none; stroke-width: 1; stroke-dasharray: none; stroke-linecap: butt; stroke-dashoffset: 0; stroke-linejoin: miter; stroke-miterlimit: 4; fill: rgb(255,218,68); fill-rule: nonzero; opacity: 1;"  points="11.53,-67.17 11.53,-67.17 -67.18,-67.18 -67.18,-67.17 67.18,67.18 " />
</g>
		<g transform="matrix(1 0 0 1 -95 -27.82)" id="XMLID_478_"  >
<polygon style="stroke: none; stroke-width: 1; stroke-dasharray: none; stroke-linecap: butt; stroke-dashoffset: 0; stroke-linejoin: miter; stroke-miterlimit: 4; fill: rgb(255,233,143); fill-rule: nonzero; opacity: 1;"  points="95,27.82 -39.35,-27.83 -95,27.83 95,27.83 95,27.82 95,27.83 95,27.83 95,27.83 95,27.83 " />
</g>
		<g transform="matrix(1 0 0 1 -67.18 67.18)" id="XMLID_479_"  >
<polygon style="stroke: none; stroke-width: 1; stroke-dasharray: none; stroke-linecap: butt; stroke-dashoffset: 0; stroke-linejoin: miter; stroke-miterlimit: 4; fill: rgb(194,251,59); fill-rule: nonzero; opacity: 1;"  points="-67.17,-11.53 -67.17,-11.53 -67.17,67.18 -67.17,67.17 67.17,-67.18 " />
</g>
		<g transform="matrix(1 0 0 1 -27.82 95)" id="XMLID_481_"  >
<polygon style="stroke: none; stroke-width: 1; stroke-dasharray: none; stroke-linecap: butt; stroke-dashoffset: 0; stroke-linejoin: miter; stroke-miterlimit: 4; fill: rgb(100,195,125); fill-rule: nonzero; opacity: 1;"  points="27.82,-95 -27.82,39.35 27.82,95 " />
</g>
		<g transform="matrix(1 0 0 1 67.18 -67.18)" id="XMLID_482_"  >
<polygon style="stroke: none; stroke-width: 1; stroke-dasharray: none; stroke-linecap: butt; stroke-dashoffset: 0; stroke-linejoin: miter; stroke-miterlimit: 4; fill: rgb(247,174,209); fill-rule: nonzero; opacity: 1;"  points="67.18,11.53 67.18,-67.17 -67.18,67.18 67.17,11.53 " />
</g>
		<g transform="matrix(1 0 0 1 95 27.83)" id="XMLID_483_"  >
<polygon style="stroke: none; stroke-width: 1; stroke-dasharray: none; stroke-linecap: butt; stroke-dashoffset: 0; stroke-linejoin: miter; stroke-miterlimit: 4; fill: rgb(124,132,232); fill-rule: nonzero; opacity: 1;"  points="39.35,27.82 95,-27.82 -95,-27.82 " />
</g>
		<g transform="matrix(1 0 0 1 67.18 67.18)" id="XMLID_484_"  >
<polygon style="stroke: none; stroke-width: 1; stroke-dasharray: none; stroke-linecap: butt; stroke-dashoffset: 0; stroke-linejoin: miter; stroke-miterlimit: 4; fill: rgb(153,239,242); fill-rule: nonzero; opacity: 1;"  points="-11.53,67.18 67.18,67.18 -67.18,-67.17 " />
</g>
		<g transform="matrix(1 0 0 1 27.83 -95)" id="XMLID_486_"  >
<polygon style="stroke: none; stroke-width: 1; stroke-dasharray: none; stroke-linecap: butt; stroke-dashoffset: 0; stroke-linejoin: miter; stroke-miterlimit: 4; fill: rgb(255,152,17); fill-rule: nonzero; opacity: 1;"  points="27.82,-39.35 -27.83,-95 -27.83,95 27.82,-39.35 " />
</g>
		<g transform="matrix(1 0 0 1 67.18 -67.18)" id="XMLID_487_"  >
<polygon style="stroke: none; stroke-width: 1; stroke-dasharray: none; stroke-linecap: butt; stroke-dashoffset: 0; stroke-linejoin: miter; stroke-miterlimit: 4; fill: rgb(234,52,139); fill-rule: nonzero; opacity: 1;"  points="67.18,-67.18 -11.53,-67.17 -11.53,-67.17 -67.18,67.18 67.17,-67.17 " />
</g>
		<g transform="matrix(1 0 0 1 95 -27.82)" id="XMLID_488_"  >
<polygon style="stroke: none; stroke-width: 1; stroke-dasharray: none; stroke-linecap: butt; stroke-dashoffset: 0; stroke-linejoin: miter; stroke-miterlimit: 4; fill: rgb(147,62,197); fill-rule: nonzero; opacity: 1;"  points="-95,27.83 -95,27.82 -95,27.83 95,27.83 39.35,-27.83 -95,27.82 -95,27.83 -95,27.83 -95,27.83 -95,27.83 " />
</g>
		<g transform="matrix(1 0 0 1 67.18 67.18)" id="XMLID_489_"  >
<polygon style="stroke: none; stroke-width: 1; stroke-dasharray: none; stroke-linecap: butt; stroke-dashoffset: 0; stroke-linejoin: miter; stroke-miterlimit: 4; fill: rgb(0,215,223); fill-rule: nonzero; opacity: 1;"  points="-67.17,-67.18 67.17,67.17 67.17,67.18 67.17,-11.53 67.17,-11.53 " />
</g>
		<g transform="matrix(1 0 0 1 27.83 95)" id="XMLID_490_"  >
<polygon style="stroke: none; stroke-width: 1; stroke-dasharray: none; stroke-linecap: butt; stroke-dashoffset: 0; stroke-linejoin: miter; stroke-miterlimit: 4; fill: rgb(75,146,94); fill-rule: nonzero; opacity: 1;"  points="-27.82,95 27.82,39.35 -27.82,-95 " />
</g>
</g>
</g>
		<g transform="matrix(1 0 0 1 0 75.1)" style="filter: url(#SVGID_4678);"  >
<filter id="SVGID_4678" y="-20%" height="140%" x="-20%" width="140%" >
	<feGaussianBlur in="SourceAlpha" stdDeviation="0"></feGaussianBlur>
	<feOffset dx="0" dy="0" result="oBlur" ></feOffset>
	<feFlood flood-color="rgb(0,0,0)" flood-opacity="0.5"/>
	<feComposite in2="oBlur" operator="in" />
	<feMerge>
		<feMergeNode></feMergeNode>
		<feMergeNode in="SourceGraphic"></feMergeNode>
	</feMerge>
</filter>
		<text xml:space="preserve" font-family="MartaDecorTwo" font-size="100" font-style="normal" font-weight="400" style="stroke: rgb(0,0,0); stroke-width: 0; stroke-dasharray: none; stroke-linecap: butt; stroke-dashoffset: 0; stroke-linejoin: round; stroke-miterlimit: 4; fill: rgb(149,49,99); fill-rule: nonzero; opacity: 1; white-space: pre;" paint-order="stroke"  ><tspan x="-180.9" y="31.41" >П</tspan><tspan x="-108.9" y="31.41" >Р</tspan><tspan x="-50.4" y="31.41" >И</tspan><tspan x="10.6" y="31.41" >М</tspan><tspan x="85" y="31.41" >Е</tspan><tspan x="144.9" y="31.41" >Р</tspan></text>
</g>
		<g transform="matrix(1 0 0 1 0 127.1)" style="filter: url(#SVGID_4679);"  >
<filter id="SVGID_4679" y="-20%" height="140%" x="-20%" width="140%" >
	<feGaussianBlur in="SourceAlpha" stdDeviation="0"></feGaussianBlur>
	<feOffset dx="0" dy="0" result="oBlur" ></feOffset>
	<feFlood flood-color="rgb(0,0,0)" flood-opacity="0.5"/>
	<feComposite in2="oBlur" operator="in" />
	<feMerge>
		<feMergeNode></feMergeNode>
		<feMergeNode in="SourceGraphic"></feMergeNode>
	</feMerge>
</filter>
		<text xml:space="preserve" font-family="Optimal" font-size="41.25" font-style="normal" font-weight="400" style="stroke: rgb(0,0,0); stroke-width: 0; stroke-dasharray: none; stroke-linecap: butt; stroke-dashoffset: 0; stroke-linejoin: round; stroke-miterlimit: 4; fill: rgb(0,0,0); fill-rule: nonzero; opacity: 1; white-space: pre;" paint-order="stroke"  ><tspan x="-104.59" y="12.96" >л</tspan><tspan x="-78.77" y="12.96" >о</tspan><tspan x="-49.85" y="12.96" >г</tspan><tspan x="-27.08" y="12.96" >о</tspan><tspan x="1.84" y="12.96" >т</tspan><tspan x="26.13" y="12.96" >и</tspan><tspan x="55.05" y="12.96" >п</tspan><tspan x="83.96" y="12.96" >а</tspan></text>
</g>
</g>
</g>
</svg>